# xmcd CD database file
#
# Track frame offsets:
#	150
#	13277
#	23680
#	40570
#	61639
#	72721
#	90383
#	110376
#	122623
#	148125
#	168175
#
# Disc length: 2402 seconds
#
# Revision: 1
# Processed by: cddbd v1.5.2PL0 Copyright (c) Steve Scherf et al.
# Submitted via: CDex 1.72
#
DISCID=8909600b
DTITLE=Sumner Brothers, The [CDN-08-The Summer Brothers-cty) - The Sumner Brothers
DYEAR=2008
DGENRE=Country
TTITLE0=Both Back
TTITLE1=Pain
TTITLE2=My Words
TTITLE3=Yeah Blue
TTITLE4=You Better Let That Liar Alone
TTITLE5=Way Worn Traveller
TTITLE6=Say You'll Always Be Mine
TTITLE7=Two Hands
TTITLE8=Ticket To Ride
TTITLE9=Stone Hearted Lover
TTITLE10=Girl In The Window
EXTD=YEAR: 2008
EXTT0=
EXTT1=
EXTT2=
EXTT3=
EXTT4=
EXTT5=
EXTT6=
EXTT7=
EXTT8=
EXTT9=
EXTT10=
PLAYORDER=
